<?xml version="1.0" encoding="UTF-8"?>
<svg width="32px" height="25px" viewBox="0 0 32 25" version="1.1" xmlns="http://www.w3.org/2000/svg" xmlns:xlink="http://www.w3.org/1999/xlink">
    <!-- Generator: Sketch 61 (89581) - https://sketch.com -->
    <title>dc-supply</title>
    <desc>Created with Sketch.</desc>
    <g id="Page-1" stroke="none" stroke-width="1" fill="none" fill-rule="evenodd">
        <g id="Artboard" transform="translate(-120.000000, -153.000000)" fill="#BEBFBF" fill-rule="nonzero">
            <path d="M136,153 C142.632468,153 148.058433,158.165565 148.474386,164.693042 L148.4902,165 L152,165 L152,166 L148.4902,166 C148.2277,172.6718 142.7361,178 136,178 C129.367552,178 123.941548,172.834484 123.525642,166.306961 L123.50983,166 L120,166 L120,165 L123.50983,165 C123.77228,158.32825 129.26392,153 136,153 Z M136,154 C129.64874,154 124.5,159.14874 124.5,165.5 C124.5,171.8513 129.64874,177 136,177 C142.3513,177 147.5,171.8513 147.5,165.5 C147.5,159.14874 142.3513,154 136,154 Z M131,161.5 L131,164.5 L134,164.5 L134,165.5 L131,165.5 L131,168.5 L130,168.5 L130,165.5 L127,165.5 L127,164.5 L130,164.5 L130,161.5 L131,161.5 Z M145,164.5 L145,165.5 L138,165.5 L138,164.5 L145,164.5 Z" id="dc-supply"></path>
        </g>
    </g>
</svg>