<svg width="32" height="11" viewBox="0 0 32 11" fill="none" xmlns="http://www.w3.org/2000/svg">
<path d="M26.4688 9.77158L26.484 10H32V11H25.5V10.5C25.5 5.91111 21.6322 5.83463 21.5033 10.2706L21.5 10.5H20.5L20.4967 10.2706C20.37 5.90981 16.63 5.90981 16.5033 10.2706L16.5 10.5H15.5L15.4967 10.2706C15.37 5.90981 11.63 5.90981 11.5033 10.2706L11.5 10.5H10.5L10.4967 10.2706C10.37 5.90981 6.63004 5.90981 6.5033 10.2706L6.5 10.5V11H0V10H5.515L5.53123 9.77158C5.90742 5.51647 9.57981 4.86183 10.9702 7.80768L11 7.873L11.0298 7.80768C12.1674 5.39744 14.8326 5.39744 15.9702 7.80768L16 7.873L16.0298 7.80768C17.1674 5.39744 19.8326 5.39744 20.9702 7.80768L21 7.873L21.0298 7.80768C22.4202 4.86184 26.0926 5.51647 26.4688 9.77158ZM26 3V4H6V3H26ZM26 0V1H6V0H26Z" fill="#BEBFBF"/>
</svg>
