<?xml version="1.0" encoding="UTF-8"?>
<svg width="32px" height="20px" viewBox="0 0 32 20" version="1.1" xmlns="http://www.w3.org/2000/svg" xmlns:xlink="http://www.w3.org/1999/xlink">
    <!-- Generator: Sketch 61 (89581) - https://sketch.com -->
    <title>push-button-normally-open</title>
    <desc>Created with Sketch.</desc>
    <g id="Page-1" stroke="none" stroke-width="1" fill="none" fill-rule="evenodd">
        <g id="Artboard" transform="translate(-127.000000, -141.000000)" fill="#BEBFBF">
            <path d="M136.5,154 C138.433,154 140,155.567 140,157.5 C140,159.433 138.433,161 136.5,161 C134.799762,161 133.382634,159.787666 133.066037,158.180193 L133.03543,158 L127,158 L127,157 L133.03543,157 C133.27805,155.3038 134.73679,154 136.5,154 Z M149.5,154 C151.2632,154 152.722,155.3038 152.9646,157 L159,157 L159,158 L152.9646,158 C152.722,159.6962 151.2632,161 149.5,161 C147.567,161 146,159.433 146,157.5 C146,155.567 147.567,154 149.5,154 Z M136.5,155 C135.11929,155 134,156.1193 134,157.5 C134,158.8807 135.11929,160 136.5,160 C137.8807,160 139,158.8807 139,157.5 C139,156.1193 137.8807,155 136.5,155 Z M149.5,155 C148.1193,155 147,156.1193 147,157.5 C147,158.8807 148.1193,160 149.5,160 C150.8807,160 152,158.8807 152,157.5 C152,156.1193 150.8807,155 149.5,155 Z M148,141 L148,145 L153,145 L153,146 L133,146 L133,145 L139,145 L139,141 L148,141 Z M147,142 L140,142 L140,145 L147,145 L147,142 Z" id="push-button-normally-open"></path>
        </g>
    </g>
</svg>