<?xml version="1.0" encoding="UTF-8"?>
<svg width="31px" height="12px" viewBox="0 0 31 12" version="1.1" xmlns="http://www.w3.org/2000/svg">
    <!-- Generator: sketchtool 61 (101010) - https://sketch.com -->
    <title>3F0B2729-79B2-4E3E-8EBB-7C92C0F798CB</title>
    <desc>Created with sketchtool.</desc>
    <g id="Page-3" stroke="none" stroke-width="1" fill="none" fill-rule="evenodd">
        <g id="insert---passives" transform="translate(-360.000000, -161.000000)" fill="#BEBFBF" fill-rule="nonzero">
            <path d="M370.978827,161 L373.833,170.492961 L376.68784,161 L377.645494,161 L380.5,170.493961 L383.354506,161 L384.31267,161.001706 L385.873,166.258961 L390.5,166.259903 C390.74546,166.259903 390.949608,166.436778 390.991944,166.670027 L391,166.759903 C391,167.005363 390.823125,167.209511 390.589876,167.251847 L390.5,167.259903 L385.5,167.259903 L385.020663,166.902158 L383.83,162.890961 L380.978827,172.374879 L380.021173,172.374879 L377.166,162.879961 L374.31216,172.374879 L373.354506,172.374879 L370.5,162.878961 L367.645494,172.374879 L366.688368,172.376624 L365.129,167.258961 L360.5,167.259903 C360.25454,167.259903 360.050392,167.083028 360.008056,166.849779 L360,166.759903 C360,166.514443 360.176875,166.310295 360.410124,166.267959 L360.5,166.259903 L365.5,166.259903 L365.978299,166.614196 L367.163,170.503961 L370.021173,161 L370.978827,161 Z"
                  id="resistor"></path>
        </g>
    </g>
</svg>