<?xml version="1.0" encoding="UTF-8"?>
<svg width="38px" height="65px" viewBox="0 0 38 65" version="1.1" xmlns="http://www.w3.org/2000/svg" xmlns:xlink="http://www.w3.org/1999/xlink">
    <!-- Generator: Sketch 61 (89581) - https://sketch.com -->
    <title>spdt-switch-open</title>
    <desc>Created with Sketch.</desc>
    <g id="Page-1" stroke="none" stroke-width="1" fill="none" fill-rule="evenodd">
        <g id="Artboard" transform="translate(-38.000000, -115.000000)" fill="#BEBFBF">
            <path d="M58,163 L58,180 L57,180 L57,163 L58,163 Z M41.5,132 C42.64366,132 43.6592,132.5485 44.29789,133.3968 L44.29789,133.3968 L45,133 L58,156 L57.9494,156.0286 C59.6702,156.2492 61,157.7193 61,159.5 C61,161.433 59.433,163 57.5,163 L57.5,163 L57.3079645,162.994821 C55.4642744,162.895127 54,161.368567 54,159.5 C54,157.7779 55.2438,156.3462 56.8821,156.0544 L56.8821,156.0544 L44.95839,134.9587 C44.98578,135.1351 45,135.3159 45,135.5 C45,137.433 43.433,139 41.5,139 C39.567,139 38,137.433 38,135.5 C38,133.567 39.567,132 41.5,132 Z M57.5,157 C56.1193,157 55,158.1193 55,159.5 C55,160.8807 56.1193,162 57.5,162 C58.8807,162 60,160.8807 60,159.5 C60,158.1193 58.8807,157 57.5,157 Z M72.5,132 C74.433,132 76,133.567 76,135.5 C76,137.433 74.433,139 72.5,139 C70.567,139 69,137.433 69,135.5 C69,133.567 70.567,132 72.5,132 Z M41.5,133 C40.11929,133 39,134.1193 39,135.5 C39,136.8807 40.11929,138 41.5,138 C42.88071,138 44,136.8807 44,135.5 C44,134.1193 42.88071,133 41.5,133 Z M72.5,133 C71.1193,133 70,134.1193 70,135.5 C70,136.8807 71.1193,138 72.5,138 C73.8807,138 75,136.8807 75,135.5 C75,134.1193 73.8807,133 72.5,133 Z M42,115 L42,132 L41,132 L41,115 L42,115 Z M73,115 L73,132 L72,132 L72,115 L73,115 Z" id="spdt-switch-open"></path>
        </g>
    </g>
</svg>